# xmcd
#
# Track frame offsets: 
#        150
#        15192
#        30026
#        46597
#        61307
#        74817
#        88162
#        101893
#        114509
#        129501
#        145974
#        161067
#        179766
#        196797
#        210786
#
# Disc length: 3024 seconds
#
# Revision: 4
# Processed by: cddbd v1.5.2PL0 Copyright (c) Steve Scherf et al.
# Submitted via: ExactAudioCopy v1.0b2
#
DISCID=c70bce0f
DTITLE=อรวี สัจจานนท์ - ประกายแก้ว ชุด 1
DYEAR=1900
DGENRE=Oldies
TTITLE0=จำเลยรัก
TTITLE1=คิดถึงเธอทุกลมหายใจ
TTITLE2=ถามใจเธอดูก่อน
TTITLE3=สนามอารมณ์
TTITLE4=น้ำตาหรือจะแก้ปัญหาใจ
TTITLE5=แล้วเราจะรักกันได้อย่างไร
TTITLE6=เอาความขมขื่นไปทิ้งแม่โขง
TTITLE7=ระฆังใจ
TTITLE8=ฆ่าฉันให้ตายดีกว่า
TTITLE9=รักต้องห้าม
TTITLE10=ความรักเจ้าขา
TTITLE11=ส่วนแบ่งที่ไม่เป็นธรรม
TTITLE12=ไม่เคยรักใครเท่าเธอ
TTITLE13=รักได้ต้องลืมได้
TTITLE14=กังหันสวาท
EXTD=
EXTT0=
EXTT1=
EXTT2=
EXTT3=
EXTT4=
EXTT5=
EXTT6=
EXTT7=
EXTT8=
EXTT9=
EXTT10=
EXTT11=
EXTT12=
EXTT13=
EXTT14=
PLAYORDER=
